<!-- icon666.com - MILLIONS vector ICONS FREE --><svg version="1.1" id="Capa_1" xmlns="http://www.w3.org/2000/svg" xmlns:xlink="http://www.w3.org/1999/xlink" x="0px" y="0px" viewBox="0 0 512 512" style="enable-background:new 0 0 512 512;" xml:space="preserve"><g><g><g><rect x="232.519" y="161.279" transform="matrix(-0.7071 0.7071 -0.7071 -0.7071 529.0825 118.4033)" width="14.999" height="14.999" fill="#000000" style="fill: rgb(20, 67, 210);"></rect><rect x="214.843" y="143.599" transform="matrix(-0.7071 0.7071 -0.7071 -0.7071 486.4057 100.7217)" width="14.999" height="14.999" fill="#000000" style="fill: rgb(20, 67, 210);"></rect><rect x="197.164" y="125.919" transform="matrix(0.7071 0.7071 -0.7071 0.7071 154.2861 -105.6415)" width="14.999" height="14.999" fill="#000000" style="fill: rgb(20, 67, 210);"></rect><rect x="355.601" y="212.012" transform="matrix(0.7071 0.7071 -0.7071 0.7071 261.568 -192.4578)" width="14.999" height="14.999" fill="#000000" style="fill: rgb(20, 67, 210);"></rect><rect x="320.297" y="247.363" transform="matrix(-0.7071 -0.7071 0.7071 -0.7071 379.3691 666.8652)" width="14.999" height="14.999" fill="#000000" style="fill: rgb(20, 67, 210);"></rect><rect x="373.284" y="194.332" transform="matrix(0.7071 0.7071 -0.7071 0.7071 254.2458 -210.1394)" width="14.999" height="14.999" fill="#000000" style="fill: rgb(20, 67, 210);"></rect><rect x="337.943" y="229.681" transform="matrix(0.7071 0.7071 -0.7071 0.7071 268.8901 -174.7962)" width="14.999" height="14.999" fill="#000000" style="fill: rgb(20, 67, 210);"></rect><rect x="61.617" y="410.016" transform="matrix(-0.7071 -0.7071 0.7071 -0.7071 -188.7063 789.3042)" width="14.999" height="47.438" fill="#000000" style="fill: rgb(20, 67, 210);"></rect><rect x="90.731" y="397.058" transform="matrix(0.7071 0.7071 -0.7071 0.7071 314.8354 49.0322)" width="14.999" height="14.999" fill="#000000" style="fill: rgb(20, 67, 210);"></rect><rect x="108.406" y="379.386" transform="matrix(0.7071 0.7071 -0.7071 0.7071 307.5182 31.3589)" width="14.999" height="14.999" fill="#000000" style="fill: rgb(20, 67, 210);"></rect><rect x="409.171" y="87.824" transform="matrix(0.7071 0.7071 -0.7071 0.7071 189.4437 -266.711)" width="14.999" height="14.999" fill="#000000" style="fill: rgb(20, 67, 210);"></rect><rect x="391.498" y="105.503" transform="matrix(0.7071 0.7071 -0.7071 0.7071 196.7687 -249.0365)" width="14.999" height="14.999" fill="#000000" style="fill: rgb(20, 67, 210);"></rect><rect x="339.601" y="108.969" transform="matrix(-0.7071 -0.7071 0.7071 -0.7071 475.913 526.9929)" width="14.999" height="111.925" fill="#000000" style="fill: rgb(20, 67, 210);"></rect><path d="M497.042,452.65l5.558-5.558l-68.388-68.388l-10.607,10.606l57.782,57.781l-23.879,23.879l-10.408,10.408l-87.409-87.409 l34.287-34.287l19.02,19.02l10.607-10.606l-29.628-29.627l-8.659,8.659l-8.014-8.014l8.658-8.658l-30.993-30.994l-7.093,7.093 l-22.255-22.245l-10.604,10.609l22.252,22.242l-20.034,20.034l-50.58-50.557l20.03-20.039l17.723,17.715l10.604-10.609 L297.29,255.99l214.7-214.794l-0.001-16.931L487.723,0L470.69,0.002l-13.708,13.714l10.609,10.604l9.315-9.32h4.604 l15.478,15.477l0.001,4.508L286.682,245.387l-20.037-20.028L456.987,34.93l-10.609-10.604L256.036,214.754L41.196,0.01 L24.263,0.013L0,24.276l0.002,17.034l13.715,13.708l10.604-10.608l-9.319-9.316l-0.001-4.605l15.478-15.477h4.508l210.445,210.35 l-20.029,20.039L34.928,55.014L24.326,65.623l190.473,190.387l-50.599,50.622l-7.16-7.16l-30.994,30.994l8.658,8.659 l-8.014,8.014l-8.658-8.658l-24.63,24.63l-13.616-13.615l-38.183,38.181l13.616,13.615l-45.81,45.81l5.558,5.558L0.01,467.617 v13.213L31.179,512h13.213l14.958-14.958l5.559,5.558l68.389-68.389l-10.607-10.606l-57.781,57.783l-34.287-34.287l87.41-87.409 l34.286,34.286l-19.02,19.02l10.607,10.606l29.626-29.627l-8.658-8.658l8.014-8.014l8.659,8.659l30.993-30.995l-7.093-7.093 l22.244-22.254l-10.609-10.604l-22.241,22.252l-20.033-20.033l50.602-50.624l20.037,20.028l-17.76,17.768l10.609,10.604 l17.76-17.768l50.577,50.555l-7.16,7.16l30.994,30.994l8.658-8.658l8.014,8.014l-8.659,8.658l24.63,24.63l-13.615,13.615 l38.183,38.183l13.615-13.615l45.809,45.81l5.558-5.558l14.958,14.958h13.214L512,480.821v-13.213L497.042,452.65z M48.743,486.436L38.179,497h-0.787l-22.383-22.383v-0.788l10.564-10.564L48.743,486.436z M65.825,390.686l-3.01-3.009 l16.97-16.97l3.01,3.009L65.825,390.686z M154.265,374.715l-16.969-16.97l8.013-8.014l16.97,16.97L154.265,374.715z M191.324,354.972l-9.781,9.781l-34.287-34.287l9.782-9.781L191.324,354.972z M256.048,276.034l-20.037-20.028l20.03-20.039 l20.037,20.028L256.048,276.034z M330.466,364.743l-9.782-9.781l34.287-34.287l9.781,9.782L330.466,364.743z M349.731,366.691 l16.969-16.97l8.014,8.014l-16.97,16.97L349.731,366.691z M387.677,449.184l-16.97-16.97l3.009-3.009l16.97,16.97 L387.677,449.184z M496.999,474.607l-22.382,22.383h-0.788l-10.564-10.564l23.17-23.17l10.564,10.564V474.607z" fill="#000000" style="fill: rgb(20, 67, 210);"></path><rect x="436.314" y="445.473" transform="matrix(0.7071 0.7071 -0.7071 0.7071 450.2897 -181.1511)" width="14.999" height="14.999" fill="#000000" style="fill: rgb(20, 67, 210);"></rect><rect x="418.624" y="427.805" transform="matrix(-0.7071 -0.7071 0.7071 -0.7071 419.6319 1044.4257)" width="14.999" height="14.999" fill="#000000" style="fill: rgb(20, 67, 210);"></rect><rect x="400.937" y="410.131" transform="matrix(-0.7071 -0.7071 0.7071 -0.7071 401.9362 1001.7491)" width="14.999" height="14.999" fill="#000000" style="fill: rgb(20, 67, 210);"></rect><rect x="47.042" y="121.622" transform="matrix(-0.7071 -0.7071 0.7071 -0.7071 129.1159 311.7241)" width="164.153" height="14.999" fill="#000000" style="fill: rgb(20, 67, 210);"></rect><rect x="192.036" y="192.031" transform="matrix(-0.7071 -0.7071 0.7071 -0.7071 199.5392 481.7139)" width="14.999" height="14.999" fill="#000000" style="fill: rgb(20, 67, 210);"></rect><rect x="209.71" y="209.699" transform="matrix(0.7071 0.7071 -0.7071 0.7071 217.2015 -89.9743)" width="14.999" height="14.999" fill="#000000" style="fill: rgb(20, 67, 210);"></rect></g></g></g></svg>